# xmcd
#
# Track frame offsets: 
#        150
#        21621
#        42518
#        73251
#        86991
#        107139
#        137084
#        155079
#        168508
#        199164
#        212171
#        241240
#        260302
#        281827
#
# Disc length: 3975 seconds
#
# Revision: 2
# Processed by: cddbd v1.5.2PL0 Copyright (c) Steve Scherf et al.
# Submitted via: ExactAudioCopy v1.0b3
#
DISCID=df0f850e
DTITLE=George Benson and Jack McDuff - George Benson and Jack McDuff
DYEAR=1977
DGENRE=Jazz
TTITLE0=Shadow Dancers
TTITLE1=The Sweet Alice Blues
TTITLE2=I Don't Know
TTITLE3=Just Another Sunday
TTITLE4=Will You Still Be Mine?
TTITLE5=Easy Living
TTITLE6=Rock-A-Bye
TTITLE7=Hot Barbecue
TTITLE8=The Party's Over
TTITLE9=Briar Patch
TTITLE10=Hippy Dip
TTITLE11=601 1-2 No. Poplar
TTITLE12=Cry Me A River
TTITLE13=The Three Day Thang
EXTD=YEAR: 2007
EXTT0=
EXTT1=
EXTT2=
EXTT3=
EXTT4=
EXTT5=
EXTT6=
EXTT7=
EXTT8=
EXTT9=
EXTT10=
EXTT11=
EXTT12=
EXTT13=
PLAYORDER=
